<svg xmlns="http://www.w3.org/2000/svg" xmlns:xlink="http://www.w3.org/1999/xlink" viewBox="0 0 50 50" fill="#009688">
  <path d="M5.5 7C3.03125 7 1.011719 9.015625 1 11.484375C1 11.484375 1 11.488281 1 11.492188C1 11.496094 1 11.496094 1 11.5L1 38.5C1 40.972656 3.027344 43 5.5 43L44.5 43C46.972656 43 49 40.972656 49 38.5L49 11.5C49 11.496094 49 11.496094 49 11.492188C49 11.488281 49 11.484375 49 11.484375C48.988281 9.015625 46.96875 7 44.5 7 Z M 8.101563 9L41.902344 9L25 20.78125 Z M 4.773438 9.117188L25 23.21875L45.230469 9.117188C46.253906 9.425781 46.992188 10.355469 47 11.488281C46.996094 11.699219 46.78125 12.121094 46.46875 12.460938C46.152344 12.804688 45.84375 13.019531 45.84375 13.019531L45.839844 13.027344L25 27.777344L4.160156 13.027344L4.15625 13.019531C4.15625 13.019531 3.847656 12.804688 3.53125 12.460938C3.21875 12.121094 3.003906 11.699219 3 11.488281C3.007813 10.355469 3.746094 9.425781 4.773438 9.117188 Z M 3 14.652344C3 14.652344 3.007813 14.660156 3.007813 14.660156L3.015625 14.664063L3.015625 14.667969L6 16.777344L6 41L5.5 41C4.109375 41 3 39.890625 3 38.5 Z M 47 14.652344L47 38.5C47 39.890625 45.890625 41 44.5 41L44 41L44 16.777344L46.984375 14.667969L46.984375 14.664063C46.984375 14.664063 47 14.652344 47 14.652344 Z M 8 18.191406L25 30.222656L42 18.191406L42 41L8 41Z" fill="#009688" />
</svg>