<svg xmlns="http://www.w3.org/2000/svg" xmlns:xlink="http://www.w3.org/1999/xlink" viewBox="0 0 64 64" fill="#009688">
  <path d="M17 0C13.140625 0 10 3.140625 10 7L10 57C10 60.859375 13.140625 64 17 64L39 64C42.859375 64 46 60.859375 46 57L46 48.175781C53.058594 46.046875 57.503906 39.902344 57.503906 31.558594L57.503906 30C57.503906 28.898438 56.609375 28 55.511719 28L46 28L46 23.558594C46.808594 24.078125 47.886719 23.933594 48.546875 23.1875L51.609375 19.730469C51.976563 19.3125 52.15625 18.757813 52.097656 18.203125C52.042969 17.644531 51.746094 17.125 51.292969 16.785156C49.691406 15.585938 47.890625 14.664063 45.988281 14.046875C45.992188 14.027344 46 14.015625 46 14L46 7C46 3.140625 42.859375 0 39 0 Z M 17 2L39 2C41.757813 2 44 4.242188 44 7L44 8L12 8L12 7C12 4.242188 14.242188 2 17 2 Z M 23 4C22.449219 4 22 4.449219 22 5C22 5.550781 22.449219 6 23 6L25 6C25.550781 6 26 5.550781 26 5C26 4.449219 25.550781 4 25 4 Z M 29 4C28.449219 4 28 4.449219 28 5C28 5.550781 28.449219 6 29 6L33 6C33.550781 6 34 5.550781 34 5C34 4.449219 33.550781 4 33 4 Z M 12 10L44 10L44 13.527344C42.769531 13.269531 41.511719 13.125 40.246094 13.125C30.183594 13.125 22 21.171875 22 31.0625C22 37.632813 25.625 43.375 31 46.5L31 47C31 47.550781 31.449219 48 32 48C32.386719 48 32.707031 47.777344 32.875 47.457031C35.132813 48.441406 37.621094 49 40.246094 49C41.554688 49 42.808594 48.886719 44 48.667969L44 52L12 52L12 48C12.550781 48 13 47.550781 13 47L13 45C13 44.449219 12.550781 44 12 44 Z M 40.246094 15.125C43.785156 15.125 47.285156 16.28125 50.113281 18.402344L47.078125 21.882813C45.085938 20.445313 42.722656 19.683594 40.246094 19.683594C36.527344 19.683594 33.21875 21.429688 31.105469 24.121094L27.398438 21.34375C30.371094 17.570313 35.019531 15.125 40.246094 15.125 Z M 40.246094 21.6875C41.554688 21.6875 42.824219 21.941406 44 22.4375L44 28L41.996094 28C40.894531 28 40 28.898438 40 30L40 34C40 35.101563 40.898438 36 42 36L48.015625 36C46.765625 38.910156 44.105469 40.4375 40.246094 40.4375C34.972656 40.4375 30.683594 36.230469 30.683594 31.0625C30.683594 25.890625 34.972656 21.6875 40.246094 21.6875 Z M 26.261719 22.988281L30.003906 25.796875C29.164063 27.371094 28.683594 29.164063 28.683594 31.0625C28.683594 32.207031 28.859375 33.3125 29.183594 34.359375L25.285156 37.28125C24.460938 35.367188 24 33.265625 24 31.0625C24 28.117188 24.832031 25.359375 26.261719 22.988281 Z M 41.996094 30L55.511719 30L55.503906 31.558594C55.503906 35.886719 54.140625 39.535156 51.769531 42.207031L48.316406 39.246094C49.261719 38.167969 49.960938 36.835938 50.375 35.253906C50.457031 34.957031 50.390625 34.636719 50.203125 34.390625C50.011719 34.144531 49.71875 34 49.410156 34L42 34 Z M 29.972656 36.265625C31.898438 39.925781 35.777344 42.4375 40.246094 42.4375C42.890625 42.4375 45.109375 41.804688 46.824219 40.597656L50.339844 43.613281C47.742188 45.777344 44.292969 47 40.246094 47C34.265625 47 29.046875 43.804688 26.226563 39.074219 Z M 17 44C16.449219 44 16 44.449219 16 45L16 47C16 47.550781 16.449219 48 17 48C17.550781 48 18 47.550781 18 47L18 45C18 44.449219 17.550781 44 17 44 Z M 22 44C21.449219 44 21 44.449219 21 45L21 47C21 47.550781 21.449219 48 22 48C22.550781 48 23 47.550781 23 47L23 45C23 44.449219 22.550781 44 22 44 Z M 27 44C26.449219 44 26 44.449219 26 45L26 47C26 47.550781 26.449219 48 27 48C27.550781 48 28 47.550781 28 47L28 45C28 44.449219 27.550781 44 27 44 Z M 12 54L44 54L44 57C44 59.757813 41.757813 62 39 62L17 62C14.242188 62 12 59.757813 12 57 Z M 28 56C26.894531 56 26 56.894531 26 58C26 59.105469 26.894531 60 28 60C29.105469 60 30 59.105469 30 58C30 56.894531 29.105469 56 28 56Z" fill="#009688" />
</svg>